<?xml version="1.0" encoding="utf-8"?>
<!-- Generator: Adobe Illustrator 25.1.0, SVG Export Plug-In . SVG Version: 6.00 Build 0)  -->
<svg version="1.1" id="Layer_1" focusable="false" xmlns="http://www.w3.org/2000/svg" xmlns:xlink="http://www.w3.org/1999/xlink"
	 x="0px" y="0px" viewBox="0 0 576 512" style="enable-background:new 0 0 576 512;" xml:space="preserve">
<style type="text/css">
	.st0{fill:url(#SVGID_1_);stroke:#4E5A65;stroke-width:14;stroke-miterlimit:10;}
	.st1{fill:#515254;}
</style>
<radialGradient id="SVGID_1_" cx="281" cy="263" r="225" gradientTransform="matrix(1 0 0 -1 0 514)" gradientUnits="userSpaceOnUse">
	<stop  offset="0" style="stop-color:#FFFFFF"/>
	<stop  offset="0.4628" style="stop-color:#FDFDFD"/>
	<stop  offset="0.6295" style="stop-color:#F6F6F6"/>
	<stop  offset="0.7483" style="stop-color:#EBEBEB"/>
	<stop  offset="0.8444" style="stop-color:#DADADA"/>
	<stop  offset="0.9257" style="stop-color:#C4C4C4"/>
	<stop  offset="0.9973" style="stop-color:#A9A9A9"/>
	<stop  offset="1" style="stop-color:#A8A8A8"/>
</radialGradient>
<circle class="st0" cx="281" cy="251" r="225"/>
<path class="st1" d="M283.9,212.9c-26.8,0-48.5,20.7-48.5,46.3s21.7,46.3,48.5,46.3c26.8,0,48.5-20.7,48.5-46.3
	S310.7,212.9,283.9,212.9L283.9,212.9z M318,242.3l-32,15.9c-1,0.5-2.1-0.2-2.1-1.2v-34.5c0-0.8,0.7-1.4,1.5-1.3
	c14.2,0.5,26.6,8.1,33.2,19.3C319,241,318.7,241.9,318,242.3L318,242.3z M370.8,134.8H191.3c-17.7,0-32,13.7-32,30.6v171.3
	c0,16.9,14.4,30.6,32,30.6h179.5c17.7,0,32-13.7,32-30.6V165.3C402.8,148.5,388.5,134.8,370.8,134.8z M260.6,178.7
	c0-5.6,4.7-10.1,10.6-10.1h24.6c5.9,0,10.6,4.5,10.6,10.1v8c0,0.9-0.9,1.6-1.8,1.3c-6.7-1.8-13.6-2.6-20.7-2.6
	c-7.3,0-14.5,0.9-21.4,2.9c-0.9,0.3-1.8-0.4-1.8-1.3L260.6,178.7L260.6,178.7z M214.8,197.9l5-4.8c4.1-3.9,10.8-3.9,15,0l4.2,4
	c0.6,0.6,0.5,1.6-0.2,2.1c-3.4,2.3-6.6,4.9-9.6,7.7c-2.9,2.8-5.7,5.9-8,9c-0.5,0.7-1.6,0.8-2.2,0.2l-4.2-4
	C210.6,208.2,210.6,201.9,214.8,197.9L214.8,197.9z M283.9,325c-38.1,0-68.8-29.4-68.8-65.7s30.8-65.7,68.8-65.7
	c38.1,0,68.8,29.4,68.8,65.7C352.7,295.5,321.9,325,283.9,325z"/>
</svg>
